ModelForces
version=1
nRows=5
nColumns=75
inDegrees=no

This file contains the forces exerted on a model during a simulation.

A force is a generalized force, meaning that it can be either a force (N) or a torque (Nm).

Units are S.I. units (second, meters, Newtons, ...)
Angles are in degrees.

endheader
time	semimem_r	semiten_r	bifemlh_r	bifemsh_r	sar_r	grac_r	rect_fem_r	vas_med_r	vas_int_r	vas_lat_r	med_gas_r	lat_gas_r	femur_lat_meniscii_r.femur_lat_r.force.X	femur_lat_meniscii_r.femur_lat_r.force.Y	femur_lat_meniscii_r.femur_lat_r.force.Z	femur_lat_meniscii_r.femur_lat_r.torque.X	femur_lat_meniscii_r.femur_lat_r.torque.Y	femur_lat_meniscii_r.femur_lat_r.torque.Z	femur_lat_meniscii_r.meniscus_lat_r.force.X	femur_lat_meniscii_r.meniscus_lat_r.force.Y	femur_lat_meniscii_r.meniscus_lat_r.force.Z	femur_lat_meniscii_r.meniscus_lat_r.torque.X	femur_lat_meniscii_r.meniscus_lat_r.torque.Y	femur_lat_meniscii_r.meniscus_lat_r.torque.Z	femur_med_meniscii_r.femur_med_r.force.X	femur_med_meniscii_r.femur_med_r.force.Y	femur_med_meniscii_r.femur_med_r.force.Z	femur_med_meniscii_r.femur_med_r.torque.X	femur_med_meniscii_r.femur_med_r.torque.Y	femur_med_meniscii_r.femur_med_r.torque.Z	femur_med_meniscii_r.meniscus_med_r.force.X	femur_med_meniscii_r.meniscus_med_r.force.Y	femur_med_meniscii_r.meniscus_med_r.force.Z	femur_med_meniscii_r.meniscus_med_r.torque.X	femur_med_meniscii_r.meniscus_med_r.torque.Y	femur_med_meniscii_r.meniscus_med_r.torque.Z	femur_med_tibia_r.tibia_upper_r.force.X	femur_med_tibia_r.tibia_upper_r.force.Y	femur_med_tibia_r.tibia_upper_r.force.Z	femur_med_tibia_r.tibia_upper_r.torque.X	femur_med_tibia_r.tibia_upper_r.torque.Y	femur_med_tibia_r.tibia_upper_r.torque.Z	femur_med_tibia_r.femur_med_r.force.X	femur_med_tibia_r.femur_med_r.force.Y	femur_med_tibia_r.femur_med_r.force.Z	femur_med_tibia_r.femur_med_r.torque.X	femur_med_tibia_r.femur_med_r.torque.Y	femur_med_tibia_r.femur_med_r.torque.Z	femur_lat_tibia_r.tibia_upper_r.force.X	femur_lat_tibia_r.tibia_upper_r.force.Y	femur_lat_tibia_r.tibia_upper_r.force.Z	femur_lat_tibia_r.tibia_upper_r.torque.X	femur_lat_tibia_r.tibia_upper_r.torque.Y	femur_lat_tibia_r.tibia_upper_r.torque.Z	femur_lat_tibia_r.femur_lat_r.force.X	femur_lat_tibia_r.femur_lat_r.force.Y	femur_lat_tibia_r.femur_lat_r.force.Z	femur_lat_tibia_r.femur_lat_r.torque.X	femur_lat_tibia_r.femur_lat_r.torque.Y	femur_lat_tibia_r.femur_lat_r.torque.Z	aACL_R	pACL_R	aPCL_R	pPCL_R	aMCL_R	mMCL_R	pMCL_R	aLCL_R	mLCL_R	pLCL_R	aPCL_L	pPCL_L	aMCL_L	aLCL_L
      0.15911504	    244.37186764	    181.70842146	    383.92029083	    269.13555408	     93.30375336	     98.52177790	     22.72492774	     53.87383461	     79.78526280	     55.94334881	      0.00000000	      0.00000000	    -65.12598670	    108.39711683	      4.31278493	     -2.46590362	     -3.18995736	     42.64380483	     65.12598670	   -108.39711683	     -4.31278493	      3.01170143	      1.73415047	      2.18822230	    -66.25711440	    158.46352133	     -6.99355623	      3.20691916	      4.11907752	     62.44125644	     66.25711440	   -158.46352133	      6.99355623	     -2.77747016	     -1.08244424	      2.29570098	    705.52077227	   -803.80165029	    158.39014666	    -16.53838584	    -10.17124130	     21.27749800	   -705.52077227	    803.80165029	   -158.39014666	     15.31127285	     75.81806216	    317.33432714	      0.00000000	      0.00000000	      0.00000000	      0.00000000	      0.00000000	      0.00000000	      0.00000000	      0.00000000	      0.00000000	      0.00000000	      0.00000000	      0.00000000	      0.00000000	      0.00000000	   1035.63265798	    578.01884592	     25.50642647	      0.00000000	      0.00000000	      0.00000000	      0.00000000	      0.00000000	      0.00000000	      0.00000000	      0.00000001	      0.00000000
      0.16032022	    244.36235558	    182.54126567	    389.47190247	    273.13526617	     93.08857487	     98.63586083	     22.65652371	     54.29684993	     80.05817830	     53.83524414	      0.00000000	      0.00000000	    -64.72860801	    110.19783519	      5.20762509	     -2.51668571	     -3.52980685	     43.34659481	     64.72860801	   -110.19783519	     -5.20762509	      3.10126389	      1.71903415	      2.23697921	    -59.84633787	    154.41365149	     -4.37774507	      3.10779460	      2.92058095	     60.85906621	     59.84633787	   -154.41365149	      4.37774507	     -2.61388024	     -0.94265699	      2.15499485	    701.81315272	   -818.01527887	    158.89943575	    -16.50265675	     -9.82640633	     21.54936010	   -701.81315272	    818.01527887	   -158.89943575	     15.33885771	     75.75462753	    322.98969674	      0.00000000	      0.00000000	      0.00000000	      0.00000000	      0.00000000	      0.00000000	      0.00000000	      0.00000000	      0.00000000	      0.00000000	      0.00000000	      0.00000000	      0.00000000	      0.00000000	   1045.28710491	    585.43898101	     25.57283738	      0.00000000	      0.00000000	      0.00000000	      0.00000000	      0.00000000	      0.00000000	      0.00000000	      0.00000001	      0.00000000
      0.16133323	    244.59107728	    183.31194382	    394.73364099	    275.90911114	     92.82563569	     98.67204908	     22.60901024	     54.31205707	     80.84202630	     56.92617741	      0.00000000	      0.00000000	    -64.23766467	    110.44791946	      5.88968730	     -2.52770515	     -3.78991646	     43.42649576	     64.23766467	   -110.44791946	     -5.88968730	      3.13793125	      1.70735450	      2.28291485	    -56.43867739	    151.18091272	     -3.48549797	      3.03078113	      2.49332261	     59.58387630	     56.43867739	   -151.18091272	      3.48549797	     -2.51858298	     -0.87993160	      2.10204086	    698.70827974	   -826.49714518	    160.32012477	    -16.46324835	     -9.55198127	     21.80536668	   -698.70827974	    826.49714518	   -160.32012477	     15.31099097	     76.11032002	    326.34411744	      0.00000000	      0.00000000	      0.00000000	      0.00000000	      0.00000000	      0.00000000	      0.00000000	      0.00000000	      0.00000000	      0.00000000	      0.00000000	      0.00000000	      0.00000000	      0.00000000	   1053.42373410	    592.07854662	     25.31697728	      0.00000000	      0.00000000	      0.00000000	      0.00000000	      0.00000000	      0.00000000	      0.00000000	      0.00000001	      0.00000000
      0.16234624	    244.98831370	    184.12794013	    400.40680508	    278.59073162	     92.54273537	     98.68342634	     22.56021623	     54.84839856	     79.07544083	     51.98312778	      0.00000000	      0.00000000	    -63.87797331	    110.33294387	      6.65622487	     -2.52995605	     -4.08948680	     43.36457656	     63.87797331	   -110.33294387	     -6.65622487	      3.16666674	      1.70148569	      2.32903916	    -51.11600570	    144.13226939	     -1.84389104	      2.87580009	      1.73655654	     56.79931376	     51.11600570	   -144.13226939	      1.84389104	     -2.34016108	     -0.79458057	      1.98366536	    694.84110877	   -831.68698389	    160.60354637	    -16.34558770	     -9.26378254	     22.05702214	   -694.84110877	    831.68698389	   -160.60354637	     15.22282928	     75.99606983	    328.37430221	      0.00000000	      0.00000000	      0.00000000	      0.00000000	      0.00000000	      0.00000000	      0.00000000	      0.00000000	      0.00000000	      0.00000000	      0.00000000	      0.00000000	      0.00000000	      0.00000000	   1061.74564290	    599.53989495	     24.84849179	      0.00000000	      0.00000000	      0.00000000	      0.00000000	      0.00000000	      0.00000000	      0.00000000	      0.00000001	      0.00000000
      0.16354213	    245.45301609	    185.01505626	    407.24587178	    280.97715301	     92.09268876	     98.59800500	     22.47627654	     52.16842678	     81.28304256	     57.98305383	      0.00000000	      0.00000000	    -65.27600598	    110.05756049	      7.08314510	     -2.51680621	     -4.28943591	     43.19890761	     65.27600598	   -110.05756049	     -7.08314510	      3.17063492	      1.73795843	      2.47130093	    -45.67809057	    142.67106297	     -0.91883122	      2.82674533	      1.24855993	     56.24396221	     45.67809057	   -142.67106297	      0.91883122	     -2.26434461	     -0.69429591	      1.86033832	    689.01304813	   -837.77418986	    160.72464808	    -16.19015803	     -8.90046298	     22.31316460	   -689.01304813	    837.77418986	   -160.72464808	     15.10723065	     75.74579471	    330.75928201	      0.00000000	      0.00000000	      0.00000000	      0.00000000	      0.00000000	      0.00000000	      0.00000000	      0.00000000	      0.00000000	      0.00000000	      0.00000000	      0.00000000	      0.00000000	      0.00000000	   1071.07530536	    607.42909280	     23.09564045	      0.00000000	      0.00000000	      0.00000000	      0.00000000	      0.00000000	      0.00000000	      0.00000000	      0.00000001	      0.00000000
